<mxfile host="Electron" modified="2023-10-14T18:19:06.396Z" agent="Mozilla/5.0 (Windows NT 10.0; Win64; x64) AppleWebKit/537.36 (KHTML, like Gecko) draw.io/21.6.8 Chrome/114.0.5735.289 Electron/25.5.0 Safari/537.36" etag="JY3e3Go2Nupppb-FyLSo" version="21.6.8" type="device">
  <diagram name="Страница — 1" id="6nn7O-Femeh64qxDm3Wk">
    <mxGraphModel dx="863" dy="545" grid="1" gridSize="10" guides="1" tooltips="1" connect="1" arrows="1" fold="1" page="1" pageScale="1" pageWidth="827" pageHeight="1169" math="0" shadow="0">
      <root>
        <mxCell id="0" />
        <mxCell id="1" parent="0" />
        <mxCell id="YvW-6pdLt3FJuE7N5xjO-2" value="Проверка введенных данных" style="html=1;align=center;verticalAlign=top;rounded=1;absoluteArcSize=1;arcSize=10;dashed=0;whiteSpace=wrap;container=1;fixDash=0;recursiveResize=0;fontSize=14;" parent="1" vertex="1">
          <mxGeometry x="80" y="120" width="480" height="320" as="geometry" />
        </mxCell>
        <mxCell id="HNl8YbV5i-yA4617Ao2V-7" value="Модуль проверки текстовых данных" style="html=1;dropTarget=0;whiteSpace=wrap;fontSize=16;verticalAlign=middle;" vertex="1" parent="YvW-6pdLt3FJuE7N5xjO-2">
          <mxGeometry x="40" y="40" width="160" height="100" as="geometry" />
        </mxCell>
        <mxCell id="HNl8YbV5i-yA4617Ao2V-8" value="" style="shape=module;jettyWidth=8;jettyHeight=4;" vertex="1" parent="HNl8YbV5i-yA4617Ao2V-7">
          <mxGeometry x="1" width="20" height="20" relative="1" as="geometry">
            <mxPoint x="-27" y="7" as="offset" />
          </mxGeometry>
        </mxCell>
        <mxCell id="HNl8YbV5i-yA4617Ao2V-9" value="База данных" style="html=1;dropTarget=0;whiteSpace=wrap;fontSize=16;" vertex="1" parent="YvW-6pdLt3FJuE7N5xjO-2">
          <mxGeometry x="40" y="200" width="160" height="100" as="geometry" />
        </mxCell>
        <mxCell id="HNl8YbV5i-yA4617Ao2V-10" value="" style="shape=module;jettyWidth=8;jettyHeight=4;" vertex="1" parent="HNl8YbV5i-yA4617Ao2V-9">
          <mxGeometry x="1" width="20" height="20" relative="1" as="geometry">
            <mxPoint x="-27" y="7" as="offset" />
          </mxGeometry>
        </mxCell>
        <mxCell id="HNl8YbV5i-yA4617Ao2V-17" style="edgeStyle=orthogonalEdgeStyle;rounded=0;orthogonalLoop=1;jettySize=auto;html=1;exitX=1;exitY=0.5;exitDx=0;exitDy=0;exitPerimeter=0;endArrow=none;endFill=0;" edge="1" parent="YvW-6pdLt3FJuE7N5xjO-2" source="HNl8YbV5i-yA4617Ao2V-12" target="HNl8YbV5i-yA4617Ao2V-5">
          <mxGeometry relative="1" as="geometry" />
        </mxCell>
        <mxCell id="HNl8YbV5i-yA4617Ao2V-18" style="edgeStyle=orthogonalEdgeStyle;rounded=0;orthogonalLoop=1;jettySize=auto;html=1;exitX=0;exitY=0.5;exitDx=0;exitDy=0;exitPerimeter=0;endArrow=none;endFill=0;" edge="1" parent="YvW-6pdLt3FJuE7N5xjO-2" source="HNl8YbV5i-yA4617Ao2V-12" target="HNl8YbV5i-yA4617Ao2V-7">
          <mxGeometry relative="1" as="geometry" />
        </mxCell>
        <mxCell id="HNl8YbV5i-yA4617Ao2V-12" value="" style="shape=providedRequiredInterface;html=1;verticalLabelPosition=bottom;sketch=0;" vertex="1" parent="YvW-6pdLt3FJuE7N5xjO-2">
          <mxGeometry x="270" y="80" width="20" height="20" as="geometry" />
        </mxCell>
        <mxCell id="HNl8YbV5i-yA4617Ao2V-16" value="" style="endArrow=open;dashed=1;endFill=0;endSize=12;html=1;rounded=0;" edge="1" parent="YvW-6pdLt3FJuE7N5xjO-2" source="HNl8YbV5i-yA4617Ao2V-7" target="HNl8YbV5i-yA4617Ao2V-9">
          <mxGeometry width="160" relative="1" as="geometry">
            <mxPoint x="390" y="200" as="sourcePoint" />
            <mxPoint x="550" y="200" as="targetPoint" />
          </mxGeometry>
        </mxCell>
        <mxCell id="HNl8YbV5i-yA4617Ao2V-22" value="" style="group" vertex="1" connectable="0" parent="YvW-6pdLt3FJuE7N5xjO-2">
          <mxGeometry x="280" y="120" width="180" height="100" as="geometry" />
        </mxCell>
        <mxCell id="HNl8YbV5i-yA4617Ao2V-5" value="Модуль взаимодействия с клиентом" style="html=1;dropTarget=0;whiteSpace=wrap;fontSize=16;" vertex="1" parent="HNl8YbV5i-yA4617Ao2V-22">
          <mxGeometry width="160" height="100" as="geometry" />
        </mxCell>
        <mxCell id="HNl8YbV5i-yA4617Ao2V-6" value="" style="shape=module;jettyWidth=8;jettyHeight=4;" vertex="1" parent="HNl8YbV5i-yA4617Ao2V-5">
          <mxGeometry x="1" width="20" height="20" relative="1" as="geometry">
            <mxPoint x="-27" y="7" as="offset" />
          </mxGeometry>
        </mxCell>
        <mxCell id="HNl8YbV5i-yA4617Ao2V-19" value="" style="html=1;rounded=0;" vertex="1" parent="HNl8YbV5i-yA4617Ao2V-22">
          <mxGeometry x="150" y="35" width="30" height="30" as="geometry" />
        </mxCell>
        <mxCell id="HNl8YbV5i-yA4617Ao2V-3" value="Введенные пользователем текстовые данные" style="html=1;dropTarget=0;whiteSpace=wrap;fontSize=16;" vertex="1" parent="1">
          <mxGeometry x="600" y="240" width="160" height="100" as="geometry" />
        </mxCell>
        <mxCell id="HNl8YbV5i-yA4617Ao2V-4" value="" style="shape=module;jettyWidth=8;jettyHeight=4;" vertex="1" parent="HNl8YbV5i-yA4617Ao2V-3">
          <mxGeometry x="1" width="20" height="20" relative="1" as="geometry">
            <mxPoint x="-27" y="7" as="offset" />
          </mxGeometry>
        </mxCell>
        <mxCell id="HNl8YbV5i-yA4617Ao2V-21" value="" style="endArrow=none;html=1;rounded=0;align=center;verticalAlign=top;endFill=0;labelBackgroundColor=none;endSize=6;" edge="1" source="HNl8YbV5i-yA4617Ao2V-19" parent="1" target="HNl8YbV5i-yA4617Ao2V-3">
          <mxGeometry relative="1" as="geometry">
            <mxPoint x="610" y="315" as="targetPoint" />
          </mxGeometry>
        </mxCell>
      </root>
    </mxGraphModel>
  </diagram>
</mxfile>
